<svg width="438" height="406" viewBox="0 0 438 406" fill="none" xmlns="http://www.w3.org/2000/svg">
<g clip-path="url(#clip0_4002_34)">
<path d="M204.663 71.8114C202.093 74.4208 198.064 80.7765 196.078 85.4529C195.698 86.3054 194.297 89.3283 192.924 92.1702C189.8 98.7326 188.077 103.564 186.15 111.289C184.544 117.671 184.252 120.202 184.31 127.902C184.34 134.464 184.632 137.228 185.303 137.435C185.478 137.487 185.77 136.583 185.975 135.394C186.179 134.231 186.53 132.966 186.734 132.604C187.435 131.415 190.559 128.031 191.873 126.997C194.881 124.724 200.75 122.063 203.699 121.649C205.422 121.443 205.831 121.804 206.181 123.949C206.882 128.212 207.933 132.035 209.977 137.642C210.736 139.76 211.583 142.447 211.817 143.584C212.08 144.721 212.488 146.555 212.722 147.666C212.985 148.803 213.248 150.999 213.335 152.575C213.598 157.665 214.036 157.897 214.562 153.273C215.146 148.261 214.24 122.579 213.189 114.131C213.014 112.839 212.78 110.695 212.605 109.351C212.313 106.742 211.7 104.21 210.853 101.859C210.269 100.257 208.108 96.6141 207.67 96.4849C207.437 96.4332 207.203 98.1901 206.882 102.892C206.678 105.838 205.276 110.953 204.488 111.728C203.699 112.503 199.086 114.441 197.304 114.777C195.319 115.139 194.297 114.984 194.034 114.312C193.859 113.769 194.384 103.693 194.618 103.125C194.706 102.918 194.968 101.704 195.202 100.438C196.282 94.5989 196.633 93.2554 198.005 89.7158C198.823 87.6489 199.786 84.9878 200.166 83.7735C201.422 79.6656 202.969 75.8935 203.962 74.4725C205.626 72.0697 206.123 71.1396 205.889 71.0104C205.743 70.9329 205.188 71.2946 204.663 71.8114Z" fill="white"/>
<path d="M245.864 72.0179C245.864 72.2246 246.185 73.0772 246.565 73.904C247.587 76.0484 248.696 79.9238 249.076 82.7399C249.251 84.0834 249.543 86.0728 249.689 87.1321C249.835 88.1914 250.04 89.5865 250.098 90.1807C250.156 90.8008 250.361 91.6792 250.507 92.1185C250.682 92.5835 251.149 95.1155 251.558 97.8024C252.142 101.678 252.288 103.719 252.288 108.085C252.288 111.341 252.171 113.717 251.996 114.028C251.5 114.828 250.332 114.622 247.937 113.304C245.309 111.857 243.499 110.436 242.272 108.834L241.338 107.672L241.163 102.892C241.046 100.257 240.929 97.3374 240.929 96.3556C240.9 95.0638 240.812 94.6246 240.491 94.6246C239.995 94.6246 240.112 94.392 237.688 100.748C236.578 103.616 235.527 106.199 235.352 106.509C234.593 107.749 232.958 114.751 232.724 117.748C232.578 119.453 232.315 122.373 232.169 124.233C231.848 127.721 231.906 129.555 232.899 144.876C233.629 155.572 233.717 156.58 233.98 155.985C234.126 155.701 234.359 152.859 234.505 149.656C234.651 146.452 234.885 143.326 235.031 142.68C235.498 140.587 235.907 138.727 236.491 136.092C236.812 134.671 237.454 132.475 237.951 131.234C239.177 128.082 242.71 121.778 243.791 120.874C245.046 119.815 246.068 120.073 248.93 122.14C255.325 126.713 258.683 129.736 260.026 132.087C260.756 133.353 260.873 133.844 260.99 136.531C261.048 138.21 261.223 139.579 261.34 139.579C261.457 139.579 261.72 139.063 261.924 138.417C262.391 136.97 262.158 124.181 261.661 122.786C261.486 122.295 261.194 120.487 261.019 118.781C260.873 117.076 260.464 114.544 260.172 113.175C259.88 111.78 259.471 109.222 259.296 107.491C259.121 105.734 258.858 103.719 258.712 103.021C258.566 102.298 258.303 100.851 258.099 99.7918C256.989 93.4878 251.5 79.4846 247.82 73.4389C246.828 71.8371 245.864 71.1137 245.864 72.0179Z" fill="white"/>
<path d="M220.431 76.8492C219.788 77.2367 219.088 78.0635 218.416 79.2519L217.394 81.0604V85.711V90.3615L218.65 93.1776C220.577 97.4922 224.227 102.039 225.599 101.807C226.271 101.704 227.205 100.076 228.256 97.208C228.665 95.9937 229.191 94.7794 229.395 94.4952C229.57 94.211 230.096 92.8934 230.534 91.5499C231.293 89.2763 231.322 88.8888 231.206 85.2201C231.089 82.0422 230.943 81.0604 230.417 79.872C229.278 77.2625 227.526 76.2808 223.876 76.2808C221.832 76.2808 221.248 76.3841 220.431 76.8492Z" fill="white"/>
<path d="M63.948 214.349C63.948 214.479 65.2912 217.14 66.4592 219.31C67.014 220.318 67.452 221.222 67.452 221.325C67.452 221.429 67.89 222.281 68.4156 223.237C68.9412 224.193 69.5544 225.511 69.7296 226.208C70.08 227.397 70.0508 227.5 68.9412 229.567C68.2988 230.755 67.2476 232.306 66.576 233.003C65.1744 234.502 64.24 236.103 64.24 237.008C64.24 237.369 64.5904 238.145 65.0576 238.713C65.4956 239.307 66.6052 240.806 67.5688 242.072C68.5032 243.312 69.5252 244.604 69.8756 244.914L70.4596 245.508L69.642 247.626C69.1748 248.815 68.5032 250.391 68.1236 251.14C67.1892 253.026 67.2768 253.93 68.6492 256.747C69.8464 259.253 70.1676 260.57 70.5472 264.239C70.6932 265.841 71.1312 267.236 72.416 270.31C74.0804 274.263 74.4016 275.297 75.0732 279.043C75.3944 280.903 76.1828 283.177 76.9128 284.52C77.1172 284.882 77.526 286.432 77.7888 288.008C78.2268 290.514 79.6284 294.932 81.5264 299.893C81.8476 300.745 82.2272 301.908 82.344 302.476C82.4608 303.045 82.7528 304.027 82.9864 304.673C83.22 305.318 83.8624 307.282 84.3588 309.065C84.8844 310.847 85.4684 312.811 85.702 313.457C85.9356 314.103 86.1984 315.343 86.3152 316.17C86.4028 317.022 86.9868 319.218 87.6292 321.079C88.7972 324.515 89.1768 325.652 90.1988 328.855C90.8704 330.896 91.9508 332.369 93.732 333.635C94.4036 334.126 96.0096 335.598 97.3236 336.942C98.6084 338.26 100.244 339.706 100.974 340.171C101.733 340.611 103.251 341.825 104.39 342.884C105.5 343.943 107.106 345.209 107.894 345.752C108.712 346.269 112.303 349.317 115.924 352.521C119.545 355.699 123.341 358.877 124.392 359.574C125.443 360.272 127.838 362.132 129.706 363.734C131.575 365.336 134.291 367.429 135.692 368.384C138.525 370.348 139.81 371.459 144.978 376.445C148.453 379.778 150.059 380.967 155.198 383.99C159.257 386.392 160.863 387.477 162.936 389.26C163.987 390.164 165.301 391.172 165.856 391.482C166.411 391.818 167.228 392.386 167.666 392.748C168.104 393.11 169.185 393.756 170.061 394.169L171.638 394.918L174.266 393.394C177.39 391.585 181.858 389.183 183.61 388.382L184.865 387.787L185.654 388.304C186.384 388.769 190.326 393.678 190.355 394.143C190.384 394.272 190.997 395.022 191.727 395.822C192.457 396.598 193.362 397.812 193.742 398.458C194.122 399.104 194.647 399.801 194.881 399.982C195.144 400.189 195.348 400.473 195.348 400.628C195.348 400.912 196.662 402.462 198.794 404.658C199.436 405.304 200.224 406.286 200.546 406.855C201.597 408.611 202.94 409.671 202.94 408.766C202.94 408.353 201.743 405.899 199.757 402.204C198.852 400.499 197.392 397.709 196.545 396.003C194.355 391.534 192.457 388.252 190.997 386.341C189.683 384.61 185.712 377.711 185.712 377.143C185.712 376.523 184.515 375.464 183.785 375.464C183.347 375.464 182.412 376.006 181.186 376.988C180.135 377.841 178.324 379.184 177.156 379.959C176.018 380.76 174.061 382.103 172.864 382.956C171.667 383.809 170.382 384.584 170.032 384.661C169.535 384.79 168.572 384.351 166.236 382.93C164.484 381.897 162.235 380.45 161.184 379.727C158.264 377.711 155.432 375.954 152.891 374.585C151.519 373.862 148.891 371.976 146.409 369.96C141.474 365.93 139.693 364.535 137.532 363.14C136.656 362.571 135.663 361.822 135.342 361.512C135.021 361.202 133.386 359.859 131.692 358.567C130.028 357.275 128.159 355.751 127.575 355.182C126.962 354.614 125.472 353.4 124.217 352.469C121.005 350.092 117.501 347.147 116.158 345.623C114.639 343.918 110.668 340.094 108.507 338.285C106.901 336.916 100.01 330.457 97.8784 328.338C96.7104 327.176 95.338 324.618 95.046 323.068C94.9292 322.448 94.2868 320.665 93.586 319.063C90.1112 311.08 89.9652 310.744 88.3592 306.223C87.6584 304.156 86.8408 301.96 86.6072 301.314C85.8188 299.299 85.264 297.361 85.0888 296.017C84.972 295.294 84.7676 294.519 84.6216 294.261C84.4756 294.002 84.0376 292.71 83.658 291.419C83.2784 290.101 82.6944 288.473 82.344 287.776C82.0228 287.052 81.6432 285.967 81.5556 285.321C81.468 284.675 81.2636 283.926 81.1176 283.668C80.9716 283.409 80.592 282.247 80.3 281.084C79.9788 279.922 79.4532 278.139 79.132 277.157C78.7816 276.149 78.256 274.418 77.9348 273.282C77.1756 270.466 76.5624 268.89 75.628 267.21C74.5768 265.35 73.1752 261.345 72.708 259.02C72.3868 257.263 72.416 257.108 72.9708 256.462C74.2848 254.99 75.6572 253.775 76.0076 253.775C76.212 253.775 76.8836 254.37 77.4968 255.067C79.3948 257.289 80.0664 257.651 82.1396 257.651C83.1324 257.625 84.4756 257.444 85.118 257.237C85.7604 257.005 87.0452 256.617 87.9504 256.359C88.8848 256.075 90.0236 255.687 90.4908 255.455C90.9872 255.248 91.5712 255.067 91.7756 255.067C92.272 255.067 97.9952 260.028 99.1924 261.475C100.915 263.567 102.784 264.962 102.784 264.187C102.784 263.929 100.828 261.087 99.864 259.976C99.4552 259.485 98.5208 258.193 97.82 257.134C95.046 252.974 93.294 251.347 91.5712 251.347C91.0748 251.347 89.6732 251.579 88.476 251.889C87.2788 252.174 85.4976 252.509 84.5632 252.587L82.8404 252.768L81.4096 251.424C80.6504 250.701 80.008 250.003 80.008 249.848C80.008 249.719 79.5408 248.944 78.9276 248.143C78.3436 247.342 77.3508 245.74 76.7084 244.604C75.5404 242.537 73.1168 239.178 72.0072 238.067C71.3648 237.421 71.4232 237.034 72.6204 234.269C73.5548 232.125 73.9636 230.135 73.73 229.05C73.6132 228.508 73.4672 227.707 73.3796 227.293C73.292 226.854 72.7372 225.872 72.124 225.097C70.7224 223.237 68.6492 220.214 67.4812 218.251C66.3716 216.39 64.6488 214.246 64.24 214.246C64.0648 214.246 63.948 214.298 63.948 214.349Z" fill="white"/>
<path d="M73.876 215.719C73.876 216.313 75.5988 220.576 76.8252 223.03L77.7888 224.968L77.7012 233.39C77.6428 240.082 77.7304 241.865 78.0224 242.071C78.2852 242.252 79.2488 242.278 80.884 242.149C83.2784 241.942 89.936 242.226 91.2208 242.562C93.148 243.079 100.536 246.128 101.587 246.851C102.317 247.342 103.076 247.471 103.076 247.084C103.076 246.954 101.937 246.128 100.536 245.223C99.1048 244.319 96.944 242.717 95.6884 241.684C92.3012 238.842 89.1768 237.757 84.388 237.757C83.1324 237.757 82.0228 237.653 81.9352 237.524C81.8476 237.395 81.7016 234.863 81.5848 231.918C81.4096 226.079 81.1468 224.244 80.2416 222.643C78.6356 219.826 74.8396 215.279 74.1096 215.279C73.9928 215.279 73.876 215.486 73.876 215.719Z" fill="white"/>
<path d="M219.175 217.631C218.562 217.76 216.985 218.303 215.671 218.845C212.401 220.214 209.831 222.514 204.838 228.585C203.874 229.748 202.765 231.04 202.356 231.453C201.947 231.867 200.604 233.675 199.319 235.432C197.392 238.171 196.691 238.92 194.735 240.341C193.45 241.271 191.61 242.382 190.588 242.795C189.596 243.234 188.457 243.777 188.048 244.009C187.639 244.242 186.471 244.733 185.42 245.12C181.449 246.567 179.872 247.317 179.872 247.704C179.872 248.169 179.784 248.169 182.004 247.73C182.996 247.523 185.128 247.162 186.734 246.929C188.34 246.671 190.121 246.386 190.676 246.257C191.231 246.128 192.136 246.025 192.691 246.025C193.8 246.025 198.21 244.526 200.575 243.364C202.765 242.278 204.283 240.754 207.466 236.569C209.247 234.218 211.262 231.944 213.16 230.187C215.817 227.733 216.314 227.397 218.358 226.622C220.139 225.976 221.132 225.769 223.234 225.666C226.271 225.537 229.716 226.079 230.914 226.906C231.322 227.19 231.79 227.423 231.994 227.423C232.198 227.423 233.337 227.991 234.505 228.663C237.075 230.161 239.352 232.409 242.71 236.801C244.083 238.584 246.185 240.909 247.616 242.175C250.098 244.397 250.098 244.423 252.288 244.81C254.712 245.25 257.69 245.611 262.07 246.025C268.903 246.645 270.888 246.826 271.794 246.981C272.524 247.084 272.728 247.032 272.728 246.696C272.728 246.464 272.407 246.231 271.94 246.154C271.472 246.051 270.071 245.715 268.786 245.379C267.501 245.017 265.545 244.526 264.406 244.242C261.603 243.57 257.894 242.33 255.237 241.193C252.697 240.057 251.208 238.61 248.842 234.993C246.652 231.556 240.258 224.271 236.578 221.041C234.213 218.948 232.987 218.303 230.33 217.734C228.256 217.321 221.073 217.243 219.175 217.631Z" fill="white"/>
<path d="M372.358 231.35C372.066 231.97 370.782 233.804 369.526 235.432C367.745 237.731 366.81 239.281 365.409 242.356C364.416 244.552 363.511 246.774 363.394 247.316C363.102 248.789 362.81 248.892 360.24 248.608C359.014 248.479 356.094 248.35 353.7 248.324C349.816 248.272 349.203 248.324 347.801 248.841C344.677 249.977 340.18 251.967 340.18 252.225C340.18 252.587 340.326 252.561 342.954 251.838C346.954 250.753 349.057 250.546 352.619 250.882C358.021 251.398 361.467 252.148 363.336 253.181C364.153 253.646 364.766 253.775 365.672 253.724C367.394 253.62 367.891 252.742 368.241 249.202C368.416 247.446 368.913 245.172 369.555 243.053C370.139 241.193 370.782 238.997 371.015 238.145C371.482 236.31 372.913 232.512 373.556 231.375C373.818 230.936 373.935 230.523 373.848 230.42C373.38 230.032 372.855 230.342 372.358 231.35Z" fill="white"/>
<path d="M378.549 238.454C377.936 239.281 376.738 240.599 375.921 241.374L374.402 242.795L374.198 246.412C374.081 248.401 373.877 250.391 373.731 250.804C373.351 251.915 370.344 254.473 365.905 257.521C359.335 262.017 359.072 262.172 357.992 262.146C356.824 262.12 354.167 261.19 352.882 260.363C351.597 259.537 348.473 258.167 347.83 258.167C347.538 258.167 346.458 258.736 345.494 259.459C343.83 260.622 336.442 264.11 335.625 264.11C335.45 264.11 335.187 264.29 335.099 264.523C334.953 264.885 335.07 264.911 336.004 264.756C336.618 264.652 337.961 264.265 339.012 263.851C342.049 262.689 345.64 261.784 347.217 261.784C348.998 261.784 350.283 262.327 353.612 264.497C356.328 266.254 358.167 267.21 358.897 267.21C359.131 267.21 359.656 266.9 360.065 266.538C360.737 265.892 363.832 264.006 365.234 263.36C366.139 262.947 366.781 263.18 367.57 264.187C368.475 265.376 368.416 267.236 367.365 270.31C366.927 271.654 366.197 273.798 365.759 275.09C365.35 276.356 364.474 278.862 363.832 280.645C361.613 286.871 360.649 289.842 359.715 293.175C358.372 298.033 355.072 306.92 353.32 310.356C352.473 311.984 351.597 314.025 351.364 314.878C350.488 317.952 348.327 324.463 347.626 325.987C346.838 327.822 345.786 330.354 344.677 333.221C343.042 337.51 341.698 339.009 335.245 343.633C334.194 344.383 332.092 345.907 330.573 346.992C329.055 348.077 326.281 349.989 324.441 351.229C322.572 352.495 320.587 353.942 320.032 354.484C319.477 355.027 317.638 356.474 315.944 357.688C314.25 358.902 312.148 360.453 311.272 361.099C310.396 361.744 308.41 363.191 306.892 364.276C305.374 365.361 303.388 366.86 302.512 367.583C299.242 370.193 296.409 372.389 294.891 373.448C294.015 374.042 291.474 376.109 289.197 378.021C282.335 383.886 278.51 386.573 277.05 386.573C275.619 386.573 270.246 383.783 268.961 382.388C268.582 381.974 267.618 381.173 266.771 380.605C265.954 380.062 264.552 379.08 263.676 378.435C261.019 376.497 260.23 376.859 258.332 380.812C257.573 382.336 256.785 384.248 256.551 385.023C256.318 385.798 255.617 387.426 254.974 388.64C254.332 389.854 253.66 391.249 253.485 391.74C253.31 392.231 252.843 393.523 252.434 394.582C252.025 395.641 251.412 397.269 251.091 398.199C250.77 399.129 250.156 400.757 249.748 401.816C249.368 402.876 248.901 404.09 248.784 404.529C248.638 404.942 248.317 405.95 248.083 406.725C247.558 408.327 247.47 409.412 247.879 409.18C248.025 409.102 248.638 408.146 249.222 407.061C249.806 406.002 250.624 404.632 251.062 404.038C251.529 403.444 252.2 402.385 252.58 401.687C252.989 400.964 253.66 399.93 254.069 399.362C254.478 398.793 255.296 397.45 255.88 396.391C257.573 393.265 261.953 389.234 264.318 388.614C265.165 388.407 265.457 388.485 266.888 389.363C267.764 389.88 269.779 391.249 271.414 392.412C274.976 394.944 275.298 395.099 276.086 394.841C276.904 394.556 281.488 391.508 281.488 391.223C281.488 391.12 282.335 390.448 283.357 389.777C285.547 388.278 290.248 384.687 293.752 381.819C295.124 380.708 297.431 379.003 298.891 378.047C302.162 375.877 307.067 372.208 310.542 369.263C312.966 367.222 317.579 363.682 321.784 360.685C322.689 360.039 324.616 358.515 326.047 357.326C327.478 356.138 329.172 354.82 329.814 354.407C330.456 353.994 331.508 353.167 332.15 352.598C332.792 352.03 334.836 350.428 336.676 349.059C338.516 347.69 341.085 345.493 342.37 344.176C343.655 342.858 345.144 341.437 345.67 340.998C346.195 340.559 346.925 339.758 347.276 339.164C348.093 337.898 352.123 326.659 353.729 321.208C355.393 315.446 356.298 312.811 357.35 310.563C357.963 309.245 358.897 307.23 359.394 306.093C359.89 304.957 360.795 302.864 361.438 301.443C362.08 300.022 362.693 298.575 362.81 298.213C363.014 297.49 364.591 293.925 365.905 291.108C366.372 290.101 367.219 288.008 367.774 286.406C368.3 284.83 368.942 283.203 369.176 282.789C369.409 282.402 370.022 280.903 370.548 279.482C371.074 278.061 372.066 275.839 372.767 274.573C375.629 269.225 375.804 268.76 375.804 267.055C375.804 265.556 375.687 265.246 374.636 263.877C373.994 263.05 373.468 262.249 373.468 262.094C373.468 261.914 373.118 261.164 372.68 260.363L371.891 258.942L374.432 256.643C376.738 254.576 376.972 254.266 376.972 253.362C377.03 248.143 377.176 247.213 378.14 245.275C379.512 242.511 380.71 236.982 379.95 236.982C379.804 236.982 379.191 237.653 378.549 238.454Z" fill="white"/>
<path d="M246.565 383.318C245.689 383.653 243.119 384.144 240.55 384.429C239.936 384.506 239.44 384.584 239.411 384.609C239.177 385.152 238.593 390.526 238.564 392.515C238.564 394.014 238.418 396.261 238.243 397.553C238.068 398.819 237.892 400.447 237.805 401.17C237.746 401.868 237.484 403.625 237.25 405.046C236.695 408.482 236.608 409.877 236.958 410.006C237.367 410.11 240.404 404.942 241.542 402.23C242.039 401.067 242.74 399.155 243.119 397.941C244.375 393.859 246.068 389.26 247.528 385.979C248.288 384.17 248.434 383.602 248.171 383.318C247.762 382.878 247.704 382.878 246.565 383.318Z" fill="white"/>
<path d="M199.086 383.499C198.881 384.015 199.524 385.695 201.451 389.751C202.414 391.766 203.845 394.867 204.663 396.649C206.736 401.326 207.875 403.677 208.313 404.271C208.517 404.555 208.868 405.253 209.072 405.821C209.656 407.397 211.174 409.826 211.466 409.671C211.934 409.412 211.379 405.356 210.24 400.654C208.984 395.409 208.692 392.877 208.926 388.976C209.16 384.92 209.014 384.506 207.232 384.506C206.707 384.506 205.247 384.248 203.962 383.964C200.75 383.214 199.232 383.085 199.086 383.499Z" fill="white"/>
</g>
<defs>
<clipPath id="clip0_4002_34">
<rect width="438" height="406" fill="white"/>
</clipPath>
</defs>
</svg>
